{"title":"WWE - NXT 24th Aug 2010  Xvid ][VAMPIRE ROCK's][BY DDH","uid":5788352,"size":328239104,"categoryP":"video","categoryS":"tv_shows","magnet":"?xt=urn:btih:0017e718e243abbf69f7a539dbc1849c65a01c9a&amp;dn=+WWE+-+NXT+24th+Aug+2010++Xvid+%5D%5BVAMPIRE+ROCK%5C%27s%5D%5BBY+DDH&amp;tr=udp%3A%2F%2Ftracker.openbittorrent.com%3A80&amp;tr=udp%3A%2F%2Fopen.demonii.com%3A1337&amp;tr=udp%3A%2F%2Ftracker.coppersurfer.tk%3A6969&amp;tr=udp%3A%2F%2Fexodus.desync.com%3A6969","seeders":0,"leechers":1,"uploader":"Vamp111","files":1,"time":1282736874,"description":"[IMG]http://i1022.photobucket.com/albums/af345/bhoottt/WWE-NXT24thAug2010XvidVAMPIREROCKs_20100825-15003253.jpg[/IMG]\n[IMG]http://i1022.photobucket.com/albums/af345/bhoottt/WWE-NXT24thAug2010XvidVAMPIREROCKs_20100825-15033996.jpg[/IMG]\n[IMG]http://i1022.photobucket.com/albums/af345/bhoottt/WWE-NXT24thAug2010XvidVAMPIREROCKs_20100825-15030621.jpg[/IMG]\n[IMG]http://i1022.photobucket.com/albums/af345/bhoottt/WWE-NXT24thAug2010XvidVAMPIREROCKs_20100825-15013820.jpg[/IMG]\n[IMG]http://i1022.photobucket.com/albums/af345/bhoottt/WWE-NXT24thAug2010XvidVAMPIREROCKs_20100825-15043939.jpg[/IMG]\n\nVideo\nID                               : 0\nFormat                           : MPEG-4 Visual\nFormat profile                   : Advanced Simple@L5\nFormat settings, BVOP            : Yes\nFormat settings, QPel            : No\nFormat settings, GMC             : No warppoints\nFormat settings, Matrix          : Default (H.263)\nCodec ID                         : XVID\nCodec ID/Hint                    : XviD\nDuration                         : 45mn 14s\nBit rate                         : 900 Kbps\nWidth                            : 640 pixels\nHeight                           : 352 pixels\nDisplay aspect ratio             : 16:9\nFrame rate                       : 29.970 fps\nResolution                       : 8 bits\nColorimetry                      : 4:2:0\nScan type                        : Progressive\nBits/(Pixel*Frame)               : 0.133\nStream size                      : 291 MiB (93%)\nWriting library                  : XviD 1.2.1 (UTC 2008-12-04)\n\nAudio\nID                               : 1\nFormat                           : MPEG Audio\nFormat version                   : Version 2\nFormat profile                   : Layer 3\nMode                             : Joint stereo\nFormat_Settings_ModeExtension    : MS Stereo\nCodec ID                         : 55\nCodec ID/Hint                    : MP3\nDuration                         : 45mn 14s\nBit rate mode                    : Constant\nBit rate                         : 56.0 Kbps\nChannel(s)                       : 2 channels\nSampling rate                    : 24.0 KHz\nStream size                      : 18.1 MiB (6%)","torrent":{"xt":"urn:btih:0017e718e243abbf69f7a539dbc1849c65a01c9a","amp;dn":"+WWE+-+NXT+24th+Aug+2010++Xvid+%5D%5BVAMPIRE+ROCK%5C%27s%5D%5BBY+DDH","amp;tr":["udp%3A%2F%2Ftracker.openbittorrent.com%3A80","udp%3A%2F%2Fopen.demonii.com%3A1337","udp%3A%2F%2Ftracker.coppersurfer.tk%3A6969","udp%3A%2F%2Fexodus.desync.com%3A6969"],"infoHash":"0017e718e243abbf69f7a539dbc1849c65a01c9a","infoHashBuffer":{"type":"Buffer","data":[0,23,231,24,226,67,171,191,105,247,165,57,219,193,132,156,101,160,28,154]},"announce":[],"urlList":[]}}